<svg viewBox="0 0 306 363" xmlns="http://www.w3.org/2000/svg" xmlns:xlink="http://www.w3.org/1999/xlink">

  <defs>
    <linearGradient x1="50%" y1="-31.597%" x2="48.824%" y2="83.334%" id="aImagePromo">
      <stop offset="0%"></stop>
      <stop stop-color="#210846" offset="100%"></stop>
    </linearGradient>
    <path
      d="M3.297 81.846a3.273 3.273 0 0 1 0-.984 3.273 3.273 0 0 1 0-.985 3.277 3.277 0 0 1 1.598-3.325L125.433 6.727a16.384 16.384 0 0 1 16.425 0l120.538 69.827a3.278 3.278 0 0 1 1.598 3.33c.05.323.05.655 0 .984.05.323.05.655 0 .984a3.277 3.277 0 0 1-1.598 3.325l-120.538 69.827a16.384 16.384 0 0 1-16.425 0L4.895 85.176a3.278 3.278 0 0 1-1.598-3.33z"
      id="bImagePromo"></path>
    <path
      d="M3.67 215.315a3.678 3.678 0 0 1 1.829-3.407l135.272-78.31a18.388 18.388 0 0 1 18.426 0l135.273 78.31a3.678 3.678 0 0 1 1.829 3.413 3.678 3.678 0 0 1-1.829 3.407l-135.273 78.31a18.388 18.388 0 0 1-18.426 0L5.498 218.728a3.678 3.678 0 0 1-1.829-3.413z"
      id="dImagePromo"></path>
    <filter x="-4.6%" y="-4.4%" width="109.2%" height="116%" filterUnits="objectBoundingBox"
      id="cImagePromo">
      <feOffset dy="6" in="SourceAlpha" result="shadowOffsetOuter1"></feOffset>
      <feGaussianBlur stdDeviation="3.5" in="shadowOffsetOuter1" result="shadowBlurOuter1">
      </feGaussianBlur>
      <feColorMatrix values="0 0 0 0 0 0 0 0 0 0 0 0 0 0 0 0 0 0 0.21 0" in="shadowBlurOuter1">
      </feColorMatrix>
    </filter>
    <filter x="-25.8%" y="-43.4%" width="151.6%" height="187.7%" filterUnits="objectBoundingBox"
      id="eImagePromo">
      <feOffset dx="4" dy="5" in="SourceAlpha" result="shadowOffsetOuter1"></feOffset>
      <feGaussianBlur stdDeviation="3" in="shadowOffsetOuter1" result="shadowBlurOuter1">
      </feGaussianBlur>
      <feColorMatrix values="0 0 0 0 0 0 0 0 0 0.00392156863 0 0 0 0 0.0784313725 0 0 0 0.34 0"
        in="shadowBlurOuter1" result="shadowMatrixOuter1"></feColorMatrix>
      <feMerge>
        <feMergeNode in="shadowMatrixOuter1"></feMergeNode>
        <feMergeNode in="SourceGraphic"></feMergeNode>
      </feMerge>
    </filter>
    <filter x="-25.8%" y="-43.5%" width="152.5%" height="188.1%" filterUnits="objectBoundingBox"
      id="fImagePromo">
      <feOffset dx="4" dy="5" in="SourceAlpha" result="shadowOffsetOuter1"></feOffset>
      <feGaussianBlur stdDeviation="3" in="shadowOffsetOuter1" result="shadowBlurOuter1">
      </feGaussianBlur>
      <feColorMatrix values="0 0 0 0 0 0 0 0 0 0.00392156863 0 0 0 0 0.0784313725 0 0 0 0.34 0"
        in="shadowBlurOuter1" result="shadowMatrixOuter1"></feColorMatrix>
      <feMerge>
        <feMergeNode in="shadowMatrixOuter1"></feMergeNode>
        <feMergeNode in="SourceGraphic"></feMergeNode>
      </feMerge>
    </filter>
    <filter x="-25.8%" y="-43.8%" width="152.4%" height="189.6%" filterUnits="objectBoundingBox"
      id="gImagePromo">
      <feOffset dx="4" dy="5" in="SourceAlpha" result="shadowOffsetOuter1"></feOffset>
      <feGaussianBlur stdDeviation="3" in="shadowOffsetOuter1" result="shadowBlurOuter1">
      </feGaussianBlur>
      <feColorMatrix values="0 0 0 0 0 0 0 0 0 0.00392156863 0 0 0 0 0.0784313725 0 0 0 0.44 0"
        in="shadowBlurOuter1" result="shadowMatrixOuter1"></feColorMatrix>
      <feMerge>
        <feMergeNode in="shadowMatrixOuter1"></feMergeNode>
        <feMergeNode in="SourceGraphic"></feMergeNode>
      </feMerge>
    </filter>
    <filter x="-41.9%" y="-36.9%" width="184.1%" height="173.7%" filterUnits="objectBoundingBox"
      id="hImagePromo">
      <feOffset dx="3" dy="-1" in="SourceAlpha" result="shadowOffsetOuter1"></feOffset>
      <feGaussianBlur stdDeviation="4.5" in="shadowOffsetOuter1" result="shadowBlurOuter1">
      </feGaussianBlur>
      <feColorMatrix values="0 0 0 0 0 0 0 0 0 0 0 0 0 0 0 0 0 0 0.25 0" in="shadowBlurOuter1"
        result="shadowMatrixOuter1"></feColorMatrix>
      <feMerge>
        <feMergeNode in="shadowMatrixOuter1"></feMergeNode>
        <feMergeNode in="SourceGraphic"></feMergeNode>
      </feMerge>
    </filter>
    <path
      d="M16.271 34.141c5.315-.019 9.648-6.976 9.679-15.54.03-8.563-4.252-15.49-9.566-15.47-5.314.02-9.648 6.977-9.679 15.54-.03 8.564 4.252 15.49 9.566 15.47z"
      id="iImagePromo"></path>
    <filter x="-56.1%" y="-33.6%" width="208%" height="170%" filterUnits="objectBoundingBox"
      id="kImagePromo">
      <feOffset dx="6" dy="-1" in="SourceAlpha" result="shadowOffsetOuter1"></feOffset>
      <feGaussianBlur stdDeviation="5" in="shadowOffsetOuter1" result="shadowBlurOuter1">
      </feGaussianBlur>
      <feColorMatrix values="0 0 0 0 0 0 0 0 0 0 0 0 0 0 0 0 0 0 0.25 0" in="shadowBlurOuter1"
        result="shadowMatrixOuter1"></feColorMatrix>
      <feMerge>
        <feMergeNode in="shadowMatrixOuter1"></feMergeNode>
        <feMergeNode in="SourceGraphic"></feMergeNode>
      </feMerge>
    </filter>
    <path
      d="M3.57.649l54.505 32.044a4.444 4.444 0 0 1 2.192 3.83V89.94a2.222 2.222 0 0 1-3.33 1.927L2.453 60.557a4.444 4.444 0 0 1-2.23-3.853V2.564A2.222 2.222 0 0 1 3.57.65z"
      id="lImagePromo"></path>
    <path
      d="M1.835 2.438l54.504 32.044a4.444 4.444 0 0 1 2.192 3.83v53.416a2.222 2.222 0 0 1-3.329 1.927L.716 62.346a4.444 4.444 0 0 1-2.23-3.853V4.353a2.222 2.222 0 0 1 3.349-1.915z"
      id="mImagePromo"></path>
    <filter x="-74.8%" y="-48.8%" width="250.3%" height="199.6%" filterUnits="objectBoundingBox"
      id="oImagePromo">
      <feOffset dx="4" dy="-1" in="SourceAlpha" result="shadowOffsetOuter1"></feOffset>
      <feGaussianBlur stdDeviation="4" in="shadowOffsetOuter1" result="shadowBlurOuter1">
      </feGaussianBlur>
      <feColorMatrix values="0 0 0 0 0 0 0 0 0 0 0 0 0 0 0 0 0 0 0.25 0" in="shadowBlurOuter1"
        result="shadowMatrixOuter1"></feColorMatrix>
      <feMerge>
        <feMergeNode in="shadowMatrixOuter1"></feMergeNode>
        <feMergeNode in="SourceGraphic"></feMergeNode>
      </feMerge>
    </filter>
  </defs>
  <g fill="none" fill-rule="evenodd">
    <g transform="translate(3 19.901)">
      <use fill="#000" filter="url(#cImagePromo)" xlink:href="#dImagePromo"></use>
      <use fill="#141826" xlink:href="#dImagePromo"></use>
    </g>
    <path
      d="M297.47 235.967l-135.273 78.31a18.388 18.388 0 0 1-18.426 0L8.498 235.967a3.678 3.678 0 0 1 0-6.366l135.273-78.31a18.388 18.388 0 0 1 18.426 0l135.273 78.31a3.678 3.678 0 0 1 0 6.366z"
      fill="#162147" fill-rule="nonzero"></path>
    <g stroke="#080D1C" stroke-width="0.532">
      <path
        d="M62.631 267.943l18.371-10.857 36.742 21.147 45.927-28.654 36.742 21.404 18.371-10.857 19.918 11.9M243.965 199.202l-18.371 10.857-36.742-21.148-45.927 28.654-36.742-21.404-18.371 10.857-19.918-11.9">
      </path>
      <path
        d="M99.373 267.79l28.435-17.478-34.975-20.866-18.812 11.559-41.013-23.44M136.98 266.246l27.552 16.661-19.232 11.288 27.557 15.49M18.106 225.035l22.472 13.95-14.689 8.264M161.363 205.51l45.466 26.062-35.978 21.12M123.538 206.461l27.708-16.13-27.708-12.366 15.538-9.066-11.268-6.41M257.453 207.394l-31.622 19.586 20.51 10.996-14.253 9.273 23.438 12.877M116.83 243.183l50.287-30.634">
      </path>
    </g>
    <path
      d="M130.83 209.053l61.808 36.501a4.67 4.67 0 0 1-1.254 8.555 28.14 28.14 0 0 1-20.958-3.025l-61.757-36.11a4.8 4.8 0 0 1 1.177-8.78 27.319 27.319 0 0 1 20.984 2.859zM118.049 285.004l40.18-22.74a5.516 5.516 0 0 1 5.456.013l32.63 18.672a1.471 1.471 0 0 1 .013 2.547l-39.794 23.275a5.516 5.516 0 0 1-5.565.003l-32.937-19.219a1.471 1.471 0 0 1 .017-2.55zM284.878 231.332l-40.18-22.74a5.516 5.516 0 0 0-5.457.012l-32.63 18.673a1.471 1.471 0 0 0-.012 2.546l39.793 23.275a5.516 5.516 0 0 0 5.566.003l32.937-19.219a1.471 1.471 0 0 0-.017-2.55zM22.66 232.067l40.179-22.74a5.516 5.516 0 0 1 5.457.013l32.63 18.672a1.471 1.471 0 0 1 .012 2.547l-39.793 23.275a5.516 5.516 0 0 1-5.565.003l-32.937-19.219a1.471 1.471 0 0 1 .016-2.55z"
      fill-opacity="0.2" fill="#000"></path>
    <g opacity="0.2" stroke="#FFF" stroke-dasharray="1.839" stroke-width="0.817">
      <path
        d="M64.51 232.801l88.757 51.701M159.977 162.882l88.758 51.701M72.925 212.345l101.617-59.314M172.095 277.015l101.618-59.314">
      </path>
    </g>
    <g>
      <svg viewBox="0 0 550 648" xmlns:xlink="http://www.w3.org/1999/xlink" class="promo-image">
        <defs>
          <filter x="-3.5%" y="-1.8%" width="107.1%" height="103.7%" filterUnits="objectBoundingBox"
            id="filter-1">
            <feOffset dx="0" dy="2" in="SourceAlpha" result="shadowOffsetOuter1"></feOffset>
            <feGaussianBlur stdDeviation="2" in="shadowOffsetOuter1" result="shadowBlurOuter1">
            </feGaussianBlur>
            <feColorMatrix values="0 0 0 0 0   0 0 0 0 0   0 0 0 0 0  0 0 0 0.5 0" type="matrix"
              in="shadowBlurOuter1" result="shadowMatrixOuter1"></feColorMatrix>
            <feMerge>
              <feMergeNode in="shadowMatrixOuter1"></feMergeNode>
              <feMergeNode in="SourceGraphic"></feMergeNode>
            </feMerge>
          </filter>
          <filter x="-27.2%" y="-45.5%" width="154.4%" height="191.0%" filterUnits="objectBoundingBox"
            id="filter-2">
            <feOffset dx="8" dy="10" in="SourceAlpha" result="shadowOffsetOuter1"></feOffset>
            <feGaussianBlur stdDeviation="5.5" in="shadowOffsetOuter1" result="shadowBlurOuter1">
            </feGaussianBlur>
            <feColorMatrix values="0 0 0 0 0   0 0 0 0 0.00392156863   0 0 0 0 0.0784313725  0 0 0 0.34 0"
              type="matrix" in="shadowBlurOuter1" result="shadowMatrixOuter1"></feColorMatrix>
            <feMerge>
              <feMergeNode in="shadowMatrixOuter1"></feMergeNode>
              <feMergeNode in="SourceGraphic"></feMergeNode>
            </feMerge>
          </filter>
        </defs>
        <g id="Page-1" stroke="none" transform="translate(210.000000, 440.000000)" stroke-width="1"
          fill="none" fill-rule="evenodd">
          <g id="1" transform="translate(-1392.000000, -553.000000)">
            <g id="Group-55" transform="translate(754.000000, 29.000000)">
              <g id="Group-21" filter="url(#filter-1)" transform="translate(439.000000, 74.000000)">
                <g id="Group-33">
                  <g id="Group-20-Copy" transform="translate(0.000000, 35.524090)">
                    <g id="Group-17" transform="translate(30.000000, 193.000000)">
                      <g id="Group-15" transform="translate(3.353487, 143.065288)">
                        <g id="Group-14" filter="url(#filter-2)"
                          transform="translate(167.075403, 78.596143)">
                          <path
                            d="M3.03613025,49.6516584 C2.92634723,49.2262529 2.92258173,48.7733966 3.03613025,48.3360899 C2.86907061,47.6887394 2.94751034,46.9778225 3.31125585,46.3548632 C3.54532864,45.9539845 3.8814363,45.6222809 4.28536725,45.3935156 L76.0767917,4.73462081 C79.1033735,3.0205237 82.8095037,3.02930156 85.827932,4.75771609 L144.131719,38.1436705 C145.183014,38.7456642 145.660683,39.9640298 145.370135,41.0827411 C145.479895,41.5079469 145.483776,41.9607509 145.370135,42.3983096 C145.53539,43.0384997 145.460635,43.7412504 145.106132,44.3603393 C144.878013,44.7587162 144.549493,45.0903687 144.153299,45.3222583 L73.0513946,86.9377393 C69.9806111,88.7350488 66.1793292,88.7370236 63.1066799,86.9429057 L4.25532836,52.5796399 C3.21585615,51.9726928 2.7478127,50.762049 3.03613025,49.6516584 Z"
                            id="Combined-Shape" fill="#D5D5DB"></path>
                          <path
                            d="M4.28536725,44.0779471 L76.0767917,3.4190523 C79.1033735,1.70495519 82.8095037,1.71373304 85.827932,3.44214758 L144.131719,36.828102 C145.390913,37.5491425 145.827172,39.1544398 145.106132,40.4136338 C144.878013,40.8120107 144.549493,41.1436631 144.153299,41.3755528 L73.0513946,82.9910337 C69.9806111,84.7883432 66.1793292,84.7903181 63.1066799,82.9962002 L4.25532836,48.6329344 C3.00227373,47.9012766 2.57959807,46.2923493 3.31125585,45.0392947 C3.54532864,44.638416 3.8814363,44.3067124 4.28536725,44.0779471 Z"
                            id="Path-6" fill="#FFFFFF"></path>
                          <polygon id="Path-2" fill="#C4BDCF" opacity="0.229999989"
                            points="16.0952636 41.8096633 68.5317538 72.7880654 63.1767442 75.682873 10.4539007 44.9061591">
                          </polygon>
                          <g id="Group-28" transform="translate(40.865248, 15.203514)">
                            <g id="Group-26" transform="translate(22.268803, 0.000000)">
                              <path
                                d="M46.6513912,21.6681297 C46.6711279,21.9544719 46.671342,22.2430924 46.6513912,22.5319657 C46.7281305,23.6453047 46.5097328,24.7930866 45.9584498,25.8562549 C45.4859604,26.7674669 44.7977949,27.5493019 43.9539237,28.1336264 C38.6871605,31.780509 31.8118302,32.1382335 26.1950344,29.0576244 L3.59665735,16.6632325 C1.42979593,15.4747875 0.266234037,13.1677403 0.430249926,10.8541462 C0.409988683,10.5677444 0.409778507,10.2790783 0.430249926,9.99031017 C0.35005887,8.85677337 0.583960037,7.68776759 1.17104503,6.61735057 C1.61718512,5.80391477 2.24223012,5.10241858 2.99902662,4.56578291 C7.90271139,1.08863653 14.3381128,0.642467387 19.6747196,3.40964997 L43.2681331,15.6435067 C45.564403,16.8341881 46.8189331,19.2422432 46.6513912,21.6681297 Z"
                                id="Combined-Shape" fill="#3AC7A8"></path>
                              <path
                                d="M2.99902662,3.70194689 L2.99902662,3.70194689 C7.90271139,0.224800508 14.3381128,-0.22136863 19.6747196,2.54581395 L43.2681331,14.7796707 C46.3541326,16.3798493 47.5586284,20.1787473 45.9584498,23.2647468 C45.4859604,24.1759589 44.7977949,24.9577939 43.9539237,25.5421184 L43.9539237,25.5421184 C38.6871605,29.1890009 31.8118302,29.5467255 26.1950344,26.4661163 L3.59665735,14.0717245 C0.629832754,12.4445286 -0.456150873,8.72033914 1.17104503,5.75351455 C1.61718512,4.94007875 2.24223012,4.23858256 2.99902662,3.70194689 Z"
                                id="Path-10" fill="#41E0BE"></path>
                              <path
                                d="M26.5855707,19.8720038 C26.5628633,19.726035 26.5512652,19.5806177 26.5512652,19.4363104 C26.5512652,16.8123514 30.3859124,14.6852123 35.1161895,14.6852123 C39.8464665,14.6852123 43.6811137,16.8123514 43.6811137,19.4363104 C43.6811137,19.5806177 43.6695156,19.726035 43.6468082,19.8720038 C43.6695156,20.0130346 43.6811137,20.1558392 43.6811137,20.3001464 C43.6811137,22.9241054 39.8464665,25.9150805 35.1161895,25.9150805 C30.3859124,25.9150805 26.5512652,22.9241054 26.5512652,20.3001464 C26.5512652,20.1558392 26.5628633,20.0130346 26.5855707,19.8720038 Z"
                                id="Combined-Shape" fill="#FFFFFF" opacity="0.300000012"></path>
                              <path
                                d="M35.1161895,24.1874085 C39.8464665,24.1874085 43.6811137,21.1964334 43.6811137,18.5724744 C43.6811137,15.9485154 39.8464665,13.8213763 35.1161895,13.8213763 C30.3859124,13.8213763 26.5512652,15.9485154 26.5512652,18.5724744 C26.5512652,21.1964334 30.3859124,24.1874085 35.1161895,24.1874085 Z"
                                id="Oval" fill="#FFFFFF" fill-rule="nonzero"></path>
                            </g>
                            <g id="Group-26-Copy" transform="translate(0.000000, 15.549048)">
                              <path
                                d="M46.6513912,21.6681297 C46.6711279,21.9544719 46.671342,22.2430924 46.6513912,22.5319657 C46.7281305,23.6453047 46.5097328,24.7930866 45.9584498,25.8562549 C45.4859604,26.7674669 44.7977949,27.5493019 43.9539237,28.1336264 C38.6871605,31.780509 31.8118302,32.1382335 26.1950344,29.0576244 L3.59665735,16.6632325 C1.42979593,15.4747875 0.266234037,13.1677403 0.430249926,10.8541462 C0.409988683,10.5677444 0.409778507,10.2790783 0.430249926,9.99031017 C0.35005887,8.85677337 0.583960037,7.68776759 1.17104503,6.61735057 C1.61718512,5.80391477 2.24223012,5.10241858 2.99902662,4.56578291 C7.90271139,1.08863653 14.3381128,0.642467387 19.6747196,3.40964997 L43.2681331,15.6435067 C45.564403,16.8341881 46.8189331,19.2422432 46.6513912,21.6681297 Z"
                                id="Combined-Shape" fill="#D9D9DB" opacity="0.5"></path>
                              <path
                                d="M2.99902662,3.70194689 L2.99902662,3.70194689 C7.90271139,0.224800508 14.3381128,-0.22136863 19.6747196,2.54581395 L43.2681331,14.7796707 C46.3541326,16.3798493 47.5586284,20.1787473 45.9584498,23.2647468 C45.4859604,24.1759589 44.7977949,24.9577939 43.9539237,25.5421184 L43.9539237,25.5421184 C38.6871605,29.1890009 31.8118302,29.5467255 26.1950344,26.4661163 L3.59665735,14.0717245 C0.629832754,12.4445286 -0.456150873,8.72033914 1.17104503,5.75351455 C1.61718512,4.94007875 2.24223012,4.23858256 2.99902662,3.70194689 Z"
                                id="Path-10" fill="#D9D9DB"></path>
                              <path
                                d="M4.31676763,8.64213557 C4.29406025,8.49616675 4.28246213,8.35074943 4.28246213,8.20644217 C4.28246213,5.58248314 8.11710934,3.45534407 12.8473864,3.45534407 C17.5776634,3.45534407 21.4123107,5.58248314 21.4123107,8.20644217 C21.4123107,8.35074943 21.4007125,8.49616675 21.3780052,8.64213557 C21.4007125,8.78316632 21.4123107,8.92597092 21.4123107,9.07027818 C21.4123107,11.6942372 17.5776634,14.6852123 12.8473864,14.6852123 C8.11710934,14.6852123 4.28246213,11.6942372 4.28246213,9.07027818 C4.28246213,8.92597092 4.29406025,8.78316632 4.31676763,8.64213557 Z"
                                id="Combined-Shape" fill="#FFFFFF" opacity="0.300000012"></path>
                              <path
                                d="M12.8473864,12.9575403 C17.5776634,12.9575403 21.4123107,9.96656517 21.4123107,7.34260615 C21.4123107,4.71864713 17.5776634,2.59150805 12.8473864,2.59150805 C8.11710934,2.59150805 4.28246213,4.71864713 4.28246213,7.34260615 C4.28246213,9.96656517 8.11710934,12.9575403 12.8473864,12.9575403 Z"
                                id="Oval" fill="#FFFFFF"></path>
                            </g>
                          </g>
                        </g>
                      </g>
                    </g>
                  </g>
                </g>
              </g>
            </g>
          </g>
        </g>
      </svg>
      <svg viewBox="0 0 550 648" xmlns:xlink="http://www.w3.org/1999/xlink" class="promo-image">
        <defs>
          <filter x="-27.2%" y="-46.0%" width="154.4%" height="192.0%" filterUnits="objectBoundingBox"
            id="filter-1">
            <feOffset dx="8" dy="10" in="SourceAlpha" result="shadowOffsetOuter1"></feOffset>
            <feGaussianBlur stdDeviation="5.5" in="shadowOffsetOuter1" result="shadowBlurOuter1">
            </feGaussianBlur>
            <feColorMatrix values="0 0 0 0 0   0 0 0 0 0.00392156863   0 0 0 0 0.0784313725  0 0 0 0.34 0"
              type="matrix" in="shadowBlurOuter1" result="shadowMatrixOuter1"></feColorMatrix>
            <feMerge>
              <feMergeNode in="shadowMatrixOuter1"></feMergeNode>
              <feMergeNode in="SourceGraphic"></feMergeNode>
            </feMerge>
          </filter>
          <path
            d="M42.4475414,8.5569362 C42.5445224,8.93733947 42.4739222,9.42950002 42.2357406,10.0334178 L3.27371537,23.5828891 C1.87777895,23.4574334 1.0321678,23.2257213 0.736881918,22.8877528 C0.537578744,22.6596411 0.472795224,22.2501442 0.54253136,21.6592623 C0.472795224,21.2564436 0.537578744,20.6722397 0.736881918,19.9066508 L39.9167476,6.47381211 C41.124218,6.65974075 41.8972157,6.95611927 42.2357406,7.36294766 C42.4739222,7.64918656 42.5445224,8.04718274 42.4475414,8.5569362 Z"
            id="path-2"></path>
          <filter x="-8.3%" y="-14.6%" width="116.7%" height="140.9%" filterUnits="objectBoundingBox"
            id="filter-3">
            <feOffset dx="0" dy="1" in="SourceAlpha" result="shadowOffsetOuter1"></feOffset>
            <feGaussianBlur stdDeviation="1" in="shadowOffsetOuter1" result="shadowBlurOuter1">
            </feGaussianBlur>
            <feColorMatrix values="0 0 0 0 0   0 0 0 0 0   0 0 0 0 0  0 0 0 0.09 0" type="matrix"
              in="shadowBlurOuter1">
            </feColorMatrix>
          </filter>
          <path
            d="M0.736881918,19.1339364 L39.9167476,5.70109774 C41.124218,5.88702639 41.8972157,6.1834049 42.2357406,6.59023329 C42.5742656,6.99706168 42.5742656,7.62964696 42.2357406,8.48798912 L3.27371537,22.0374604 C1.87777895,21.9120046 1.0321678,21.6802926 0.736881918,21.3423241 C0.441596034,21.0043557 0.441596034,20.2682264 0.736881918,19.1339364 Z"
            id="path-4"></path>
          <filter x="-8.3%" y="-15.3%" width="116.7%" height="142.8%" filterUnits="objectBoundingBox"
            id="filter-5">
            <feOffset dx="0" dy="1" in="SourceAlpha" result="shadowOffsetOuter1"></feOffset>
            <feGaussianBlur stdDeviation="1" in="shadowOffsetOuter1" result="shadowBlurOuter1">
            </feGaussianBlur>
            <feColorMatrix values="0 0 0 0 0   0 0 0 0 0   0 0 0 0 0  0 0 0 0.09 0" type="matrix"
              in="shadowBlurOuter1">
            </feColorMatrix>
          </filter>
        </defs>
        <g id="Page-1" stroke="none" stroke-width="1" transform="translate(368.000000, 353.000000)"
          fill="none" fill-rule="evenodd">
          <g id="1" transform="translate(-1552.000000, -455.000000)">
            <g id="Group-55" transform="translate(754.000000, 29.000000)">
              <g id="Group-21" transform="translate(439.000000, 74.000000)">
                <g id="Group-33">
                  <g id="Group-20-Copy" transform="translate(0.000000, 35.524090)">
                    <g id="Group-17" transform="translate(30.000000, 315.000000)">
                      <g id="Group-15-Copy-2" filter="url(#filter-1)"
                        transform="translate(402.527905, 44.673976) scale(-1, 1) translate(-402.527905, -44.673976) translate(328.027905, 0.673976)">
                        <g id="Group-14">
                          <path
                            d="M3.03613025,49.0211447 C2.92634723,48.5957392 2.92258173,48.1428829 3.03613025,47.7055762 C2.86907061,47.0582257 2.94751034,46.3473088 3.31125585,45.7243495 C3.54532864,45.3234708 3.8814363,44.9917672 4.28536725,44.7630019 L76.0767917,4.1041071 C79.1033735,2.39000999 82.8095037,2.39878784 85.827932,4.12720238 L144.131719,37.5131568 C145.183014,38.1151504 145.660683,39.3335161 145.370135,40.4522274 C145.479895,40.8774332 145.483776,41.3302371 145.370135,41.7677959 C145.53539,42.407986 145.460635,43.1107366 145.106132,43.7298256 C144.878013,44.1282025 144.549493,44.459855 144.153299,44.6917446 L73.0513946,86.3072256 C69.9806111,88.1045351 66.1793292,88.1065099 63.1066799,86.312392 L4.25532836,51.9491262 C3.21585615,51.3421791 2.7478127,50.1315353 3.03613025,49.0211447 Z"
                            id="Combined-Shape" fill="#D5D5DB"></path>
                          <path
                            d="M4.28536725,43.4474334 L76.0767917,2.78853859 C79.1033735,1.07444147 82.8095037,1.08321933 85.827932,2.81163386 L144.131719,36.1975883 C145.390913,36.9186288 145.827172,38.5239261 145.106132,39.7831201 C144.878013,40.1814969 144.549493,40.5131494 144.153299,40.7450391 L73.0513946,82.36052 C69.9806111,84.1578295 66.1793292,84.1598044 63.1066799,82.3656865 L4.25532836,48.0024207 C3.00227373,47.2707629 2.57959807,45.6618356 3.31125585,44.408781 C3.54532864,44.0079023 3.8814363,43.6761987 4.28536725,43.4474334 Z"
                            id="Path-6" fill="#FFFFFF"></path>
                          <path
                            d="M24.290232,42.5577047 L73.2461214,15.095314 C76.2545718,13.4076878 79.9265371,13.4163421 82.9269991,15.1181305 L122.226431,37.4078038 C123.488578,38.1236626 123.931432,39.7271532 123.215573,40.9893003 C122.98546,41.395018 122.651486,41.7321619 122.24796,41.9660971 L73.7946635,70.0558169 C70.7417551,71.8256726 66.9754227,71.82762 63.9206856,70.0609224 L24.2602675,47.1234439 C23.0041868,46.3969935 22.5748365,44.7898345 23.3012869,43.5337537 C23.53737,43.1255503 23.8789651,42.7884098 24.290232,42.5577047 Z"
                            id="Path-6-Copy-8" fill="#F2F2F5"></path>
                          <g id="Group-25"
                            transform="translate(73.286959, 40.874717) scale(-1, 1) translate(-73.286959, -40.874717) translate(51.903980, 26.621422)">
                            <g id="Group-23" transform="translate(0.777563, 0.000000)">
                              <path
                                d="M0.800072871,12.8935742 C0.763099847,12.7899512 0.748072966,12.6776532 0.758726192,12.563584 L1.56220953,3.96019608 C1.67109679,2.79428814 2.63566175,1.89458849 3.80631824,1.86699975 L20.2331319,1.47987074 C20.4896722,1.47382488 20.732345,1.59605773 20.8801961,1.80579452 C21.2513816,2.33233997 21.4369744,2.76050745 21.4369744,3.09029693 C21.4369744,3.21007464 21.4124928,3.33489133 21.3635296,3.46474699 C21.4124928,3.61047882 21.4369744,3.74323359 21.4369744,3.8630113 C21.4369744,4.196517 21.2471754,4.56908854 20.8675773,4.98072591 C20.7262858,5.13394287 20.5288855,5.22329154 20.3205269,5.22833557 L7.23557396,5.5451219 C6.84657093,5.55453904 6.52581677,5.85287216 6.48828473,6.24017486 L5.83379875,12.9939817 C5.81693428,13.1680104 5.74130735,13.3311077 5.6193717,13.4564157 L5.61936144,13.4564057 C4.91722669,14.1779594 4.10790842,14.5387363 3.19140664,14.5387363 C2.40914957,14.5387363 1.73380874,14.388558 1.16538416,14.0882016 C0.890279684,13.942836 0.729793068,13.6460991 0.758726192,13.3362984 L0.800072871,12.8935742 Z"
                                id="Combined-Shape" fill="#141826" opacity="0.560000002"></path>
                              <path
                                d="M5.83379875,11.448553 L6.48828473,4.69474613 C6.52581677,4.30744343 6.84657093,4.00911031 7.23557396,3.99969317 L20.3205269,3.68290684 C20.5288855,3.67786281 20.7262858,3.58851415 20.8675773,3.43529718 C21.2471754,3.02365981 21.4369744,2.65108827 21.4369744,2.31758257 C21.4369744,1.98779308 21.2513816,1.55962561 20.8801961,1.03308015 L20.8801973,1.03307928 C20.732345,0.823343362 20.4896722,0.701110517 20.2331319,0.707156374 L3.80631824,1.09428539 C2.63566175,1.12187413 1.67109679,2.02157378 1.56220953,3.18748172 L0.758726192,11.7908696 C0.729793068,12.1006704 0.890279684,12.3974073 1.16538416,12.5427729 C1.73380874,12.8431293 2.40914957,12.9933075 3.19140664,12.9933075 C4.10790842,12.9933075 4.91722669,12.6325307 5.61936144,11.910977 L5.6193717,11.910987 C5.74130735,11.785679 5.81693428,11.6225817 5.83379875,11.448553 Z"
                                id="Path-3" fill="#293563" fill-rule="nonzero"></path>
                            </g>
                            <g id="Group-22" transform="translate(20.216634, 13.908859)">
                              <g id="Group-24">
                                <path
                                  d="M20.8907436,2.43690416 C20.9277124,2.54051375 20.9427467,2.65281187 20.9320908,2.76690954 L20.1167413,11.4969368 C20.007854,12.6628448 19.0432891,13.5625444 17.8726326,13.5901332 L1.2135964,13.982735 C0.957289178,13.9887753 0.714807502,13.8667692 0.566912894,13.6573484 C0.188970965,13.1221945 -1.63424829e-13,12.6872092 -1.63424829e-13,12.3523926 C-1.63424829e-13,12.2325196 0.0242227512,12.107661 0.0726682536,11.9778166 C0.0242227512,11.832264 -1.63424829e-13,11.6995512 -1.63424829e-13,11.5796782 C-1.63424829e-13,11.241099 0.193242125,10.8627452 0.579726374,10.4446169 C0.720985634,10.2917918 0.918122853,10.2027003 1.1261717,10.1976637 L14.384359,9.87668625 C14.7733621,9.86726912 15.0941162,9.568936 15.1316483,9.18163329 L15.7942807,2.34376055 C15.8116981,2.16402662 15.891766,1.99614159 16.0204732,1.86948418 L16.0205067,1.86951817 C16.7635429,1.13831563 17.5799953,0.772714365 18.4698638,0.772714365 C19.2381504,0.772714365 19.9218158,0.928432229 20.5208601,1.23986796 C20.798604,1.38426358 20.9611995,1.68251514 20.9320908,1.99419517 L20.8907436,2.43690416 Z"
                                  id="Combined-Shape" fill="#141826" opacity="0.560000002"></path>
                                <path
                                  d="M5.14368422,10.8669004 L5.80631669,4.02902761 C5.84384873,3.64172491 6.16460289,3.34339179 6.55360592,3.33397465 L19.8117933,3.01299717 C20.0198421,3.00796064 20.2169793,2.91886909 20.3582386,2.76604399 C20.7447228,2.34791571 20.9379649,1.96956194 20.9379649,1.63098269 C20.9379649,1.29616609 20.748994,0.861180814 20.3710521,0.326026855 L20.3710552,0.326024646 C20.2231574,0.116606074 19.9806758,-0.00540006868 19.7243685,0.000640297207 L3.06533235,0.393242086 C1.89467586,0.420830827 0.930110902,1.32053048 0.821223638,2.48643842 L0.00587411291,11.2164657 C-0.0232345197,11.5281458 0.139360985,11.8263973 0.417104861,11.9707929 C1.01614912,12.2822287 1.69981455,12.4379465 2.46810113,12.4379465 C3.35796962,12.4379465 4.174422,12.0723453 4.91745826,11.3411427 L4.91749171,11.3411767 C5.04619893,11.2145193 5.12626688,11.0466343 5.14368422,10.8669004 Z"
                                  id="Path-3-Copy" fill="#293563" fill-rule="nonzero"
                                  transform="translate(10.468982, 6.218973) scale(-1, -1) translate(-10.468982, -6.218973) ">
                                </path>
                              </g>
                            </g>
                            <g id="Combined-Shape" opacity="0.300000012">
                              <use fill="black" fill-opacity="1" filter="url(#filter-3)"
                                xlink:href="#path-2">
                              </use>
                              <use fill="#FF6982" fill-rule="evenodd" xlink:href="#path-2"></use>
                            </g>
                            <g id="Path-10-Copy">
                              <use fill="black" fill-opacity="1" filter="url(#filter-5)"
                                xlink:href="#path-4">
                              </use>
                              <use fill="#FF6982" fill-rule="evenodd" xlink:href="#path-4"></use>
                            </g>
                          </g>
                        </g>
                      </g>
                    </g>
                  </g>
                </g>
              </g>
            </g>
          </g>
        </g>
      </svg>
      <g filter="url(#gImagePromo)" transform="translate(19.85 196.322)">
        <path
          d="M1.701 27.419a1.47 1.47 0 0 1 0-.736 1.466 1.466 0 0 1 .7-1.648l40.18-22.74a5.516 5.516 0 0 1 5.457.013l32.63 18.672c.589.337.856 1.02.694 1.646a1.47 1.47 0 0 1 0 .736 1.466 1.466 0 0 1-.682 1.637L40.887 48.274a5.516 5.516 0 0 1-5.566.003L2.384 29.057a1.472 1.472 0 0 1-.683-1.638z"
          fill="#C4BDCF"></path>
        <path
          d="M2.401 24.3l40.18-22.74a5.516 5.516 0 0 1 5.457.012l32.63 18.673a1.471 1.471 0 0 1 .012 2.546L40.887 46.066a5.516 5.516 0 0 1-5.566.003L2.384 26.85a1.471 1.471 0 0 1 .017-2.55z"
          fill="#FFF"></path>
        <g opacity="0.46">
          <path
            d="M35.847 7.922L44.892 2.8a1.24 1.24 0 0 1 1.226.003l7.346 4.207a.33.33 0 0 1 .003.572l-8.958 5.244a1.24 1.24 0 0 1-1.251 0l-7.415-4.33a.33.33 0 0 1 .004-.573z"
            fill="#E23E7C"></path>
          <path
            d="M46.622 14.269l9.045-5.124a1.24 1.24 0 0 1 1.227.003l7.345 4.207a.33.33 0 0 1 .003.572l-8.958 5.244a1.24 1.24 0 0 1-1.25 0l-7.415-4.33a.33.33 0 0 1 .003-.572z"
            fill="#3CC0A7"></path>
          <path
            d="M57.398 20.615l9.045-5.124a1.24 1.24 0 0 1 1.226.003l7.346 4.207a.33.33 0 0 1 .003.572l-8.958 5.244a1.24 1.24 0 0 1-1.251 0l-7.415-4.33a.33.33 0 0 1 .004-.572z"
            fill="#FF7600"></path>
          <g>
            <path
              d="M24.092 14.757l9.044-5.124a1.24 1.24 0 0 1 1.227.003l7.346 4.207a.33.33 0 0 1 .003.572l-8.958 5.244a1.24 1.24 0 0 1-1.251 0l-7.415-4.33a.33.33 0 0 1 .004-.572z"
              fill="#95EB4A"></path>
            <path
              d="M34.867 21.103l9.045-5.123a1.24 1.24 0 0 1 1.227.002l7.345 4.207a.33.33 0 0 1 .003.572l-8.958 5.244a1.24 1.24 0 0 1-1.25 0l-7.416-4.33a.33.33 0 0 1 .004-.572z"
              fill="#1F77E0"></path>
            <path
              d="M45.643 27.449l9.044-5.123a1.24 1.24 0 0 1 1.227.002l7.346 4.207a.33.33 0 0 1 .003.572l-8.958 5.244a1.24 1.24 0 0 1-1.251 0l-7.415-4.33a.33.33 0 0 1 .004-.572z"
              fill="#6912EA"></path>
          </g>
          <g>
            <path
              d="M12.337 22.079l9.044-5.123a1.24 1.24 0 0 1 1.227.003l7.346 4.207a.33.33 0 0 1 .002.572L21 26.98a1.24 1.24 0 0 1-1.251.001l-7.415-4.33a.33.33 0 0 1 .004-.573z"
              fill="#55D1DC"></path>
            <path
              d="M23.112 28.425l9.045-5.123a1.24 1.24 0 0 1 1.226.003l7.346 4.207a.33.33 0 0 1 .003.572l-8.958 5.243a1.24 1.24 0 0 1-1.25.001l-7.416-4.33a.33.33 0 0 1 .004-.573z"
              fill="#FFABF9"></path>
            <path
              d="M33.888 34.771l9.044-5.123a1.24 1.24 0 0 1 1.227.003l7.346 4.207a.33.33 0 0 1 .002.572l-8.957 5.243a1.24 1.24 0 0 1-1.251.001l-7.415-4.33a.33.33 0 0 1 .004-.573z"
              fill="#FF67C5"></path>
          </g>
          <g>
            <path
              d="M35.847 8.331l9.045-5.123a1.24 1.24 0 0 1 1.226.003l7.346 4.207a.33.33 0 0 1 .003.572l-8.958 5.243a1.24 1.24 0 0 1-1.251.001l-7.415-4.33a.33.33 0 0 1 .004-.573z"
              fill="#E23E7C"></path>
            <path
              d="M46.622 14.677l9.045-5.123a1.24 1.24 0 0 1 1.227.003l7.345 4.207a.33.33 0 0 1 .003.572l-8.958 5.243a1.24 1.24 0 0 1-1.25.001l-7.415-4.33a.33.33 0 0 1 .003-.573z"
              fill="#3CC0A7"></path>
            <path
              d="M57.398 21.023l9.045-5.123a1.24 1.24 0 0 1 1.226.003l7.346 4.207a.33.33 0 0 1 .003.572l-8.958 5.243a1.24 1.24 0 0 1-1.251.001l-7.415-4.33a.33.33 0 0 1 .004-.573z"
              fill="#FF7600"></path>
            <g>
              <path
                d="M24.092 15.165l9.044-5.123a1.24 1.24 0 0 1 1.227.003l7.346 4.207a.33.33 0 0 1 .003.572l-8.958 5.244a1.24 1.24 0 0 1-1.251 0l-7.415-4.33a.33.33 0 0 1 .004-.573z"
                fill="#95EB4A"></path>
              <path
                d="M34.867 21.511l9.045-5.123a1.24 1.24 0 0 1 1.227.003l7.345 4.207a.33.33 0 0 1 .003.572l-8.958 5.244a1.24 1.24 0 0 1-1.25 0l-7.416-4.33a.33.33 0 0 1 .004-.573z"
                fill="#1F77E0"></path>
              <path
                d="M45.643 27.857l9.044-5.123a1.24 1.24 0 0 1 1.227.003l7.346 4.207a.33.33 0 0 1 .003.572l-8.958 5.244a1.24 1.24 0 0 1-1.251 0l-7.415-4.33a.33.33 0 0 1 .004-.573z"
                fill="#6912EA"></path>
            </g>
            <g>
              <path
                d="M12.337 22.488l9.044-5.124a1.24 1.24 0 0 1 1.227.003l7.346 4.207a.33.33 0 0 1 .002.572L21 27.39a1.24 1.24 0 0 1-1.251 0l-7.415-4.33a.33.33 0 0 1 .004-.572z"
                fill="#55D1DC"></path>
              <path
                d="M23.112 28.834l9.045-5.124a1.24 1.24 0 0 1 1.226.003l7.346 4.207a.33.33 0 0 1 .003.572l-8.958 5.244a1.24 1.24 0 0 1-1.25 0l-7.416-4.33a.33.33 0 0 1 .004-.572z"
                fill="#FFABF9"></path>
              <path
                d="M33.888 35.18l9.044-5.124a1.24 1.24 0 0 1 1.227.003l7.346 4.207a.33.33 0 0 1 .002.572l-8.957 5.244a1.24 1.24 0 0 1-1.251 0l-7.415-4.33a.33.33 0 0 1 .004-.572z"
                fill="#FF67C5"></path>
            </g>
          </g>
          <g>
            <path
              d="M35.847 8.74l9.045-5.124a1.24 1.24 0 0 1 1.226.003l7.346 4.207a.33.33 0 0 1 .003.572l-8.958 5.244a1.24 1.24 0 0 1-1.251 0l-7.415-4.33a.33.33 0 0 1 .004-.572z"
              fill="#E23E7C"></path>
            <path
              d="M46.622 15.086l9.045-5.124a1.24 1.24 0 0 1 1.227.003l7.345 4.207a.33.33 0 0 1 .003.572l-8.958 5.244a1.24 1.24 0 0 1-1.25 0l-7.415-4.33a.33.33 0 0 1 .003-.572z"
              fill="#3CC0A7"></path>
            <path
              d="M57.398 21.432l9.045-5.124a1.24 1.24 0 0 1 1.226.003l7.346 4.207a.33.33 0 0 1 .003.572l-8.958 5.244a1.24 1.24 0 0 1-1.251 0l-7.415-4.33a.33.33 0 0 1 .004-.572z"
              fill="#FF7600"></path>
            <g>
              <path
                d="M24.092 15.574l9.044-5.123a1.24 1.24 0 0 1 1.227.003l7.346 4.206a.33.33 0 0 1 .003.572l-8.958 5.244a1.24 1.24 0 0 1-1.251 0l-7.415-4.33a.33.33 0 0 1 .004-.572z"
                fill="#95EB4A"></path>
              <path
                d="M34.867 21.92l9.045-5.123a1.24 1.24 0 0 1 1.227.003l7.345 4.207a.33.33 0 0 1 .003.571l-8.958 5.244a1.24 1.24 0 0 1-1.25 0l-7.416-4.33a.33.33 0 0 1 .004-.572z"
                fill="#1F77E0"></path>
              <path
                d="M45.643 28.266l9.044-5.123a1.24 1.24 0 0 1 1.227.003l7.346 4.207a.33.33 0 0 1 .003.572l-8.958 5.243a1.24 1.24 0 0 1-1.251 0l-7.415-4.33a.33.33 0 0 1 .004-.572z"
                fill="#6912EA"></path>
            </g>
            <g>
              <path
                d="M12.337 22.896l9.044-5.123a1.24 1.24 0 0 1 1.227.003l7.346 4.207a.33.33 0 0 1 .002.572L21 27.799a1.24 1.24 0 0 1-1.251 0l-7.415-4.33a.33.33 0 0 1 .004-.573z"
                fill="#55D1DC"></path>
              <path
                d="M23.112 29.242l9.045-5.123a1.24 1.24 0 0 1 1.226.003l7.346 4.207a.33.33 0 0 1 .003.572l-8.958 5.244a1.24 1.24 0 0 1-1.25 0l-7.416-4.33a.33.33 0 0 1 .004-.573z"
                fill="#FFABF9"></path>
              <path
                d="M33.888 35.588l9.044-5.123a1.24 1.24 0 0 1 1.227.003l7.346 4.207a.33.33 0 0 1 .002.572L42.55 40.49a1.24 1.24 0 0 1-1.251 0l-7.415-4.33a.33.33 0 0 1 .004-.573z"
                fill="#FF67C5"></path>
            </g>
          </g>
        </g>
        <path
          d="M35.847 7.514l9.045-5.123a1.24 1.24 0 0 1 1.226.003L53.464 6.6a.33.33 0 0 1 .003.572l-8.958 5.243a1.24 1.24 0 0 1-1.251 0l-7.415-4.33a.33.33 0 0 1 .004-.572z"
          fill="#E23E7C"></path>
        <path
          d="M46.622 13.86l9.045-5.123a1.24 1.24 0 0 1 1.227.003l7.345 4.207a.33.33 0 0 1 .003.572l-8.958 5.243a1.24 1.24 0 0 1-1.25.001l-7.415-4.33a.33.33 0 0 1 .003-.573z"
          fill="#3CC0A7"></path>
        <path
          d="M57.398 20.206l9.045-5.123a1.24 1.24 0 0 1 1.226.003l7.346 4.207a.33.33 0 0 1 .003.572l-8.958 5.243a1.24 1.24 0 0 1-1.251.001l-7.415-4.33a.33.33 0 0 1 .004-.573z"
          fill="#FF7600"></path>
        <g>
          <path
            d="M24.092 14.348l9.044-5.123a1.24 1.24 0 0 1 1.227.003l7.346 4.207a.33.33 0 0 1 .003.572l-8.958 5.243a1.24 1.24 0 0 1-1.251.001l-7.415-4.33a.33.33 0 0 1 .004-.573z"
            fill="#95EB4A"></path>
          <path
            d="M34.867 20.694l9.045-5.123a1.24 1.24 0 0 1 1.227.003l7.345 4.207a.33.33 0 0 1 .003.572l-8.958 5.244a1.24 1.24 0 0 1-1.25 0l-7.416-4.33a.33.33 0 0 1 .004-.573z"
            fill="#1F77E0"></path>
          <path
            d="M45.643 27.04l9.044-5.123a1.24 1.24 0 0 1 1.227.003l7.346 4.207a.33.33 0 0 1 .003.572l-8.958 5.244a1.24 1.24 0 0 1-1.251 0l-7.415-4.33a.33.33 0 0 1 .004-.573z"
            fill="#6912EA"></path>
        </g>
        <g>
          <path
            d="M12.337 21.67l9.044-5.123a1.24 1.24 0 0 1 1.227.003l7.346 4.207a.33.33 0 0 1 .002.572L21 26.573a1.24 1.24 0 0 1-1.251 0l-7.415-4.33a.33.33 0 0 1 .004-.573z"
            fill="#55D1DC"></path>
          <path
            d="M23.112 28.017l9.045-5.124a1.24 1.24 0 0 1 1.226.003l7.346 4.207a.33.33 0 0 1 .003.572l-8.958 5.244a1.24 1.24 0 0 1-1.25 0l-7.416-4.33a.33.33 0 0 1 .004-.572z"
            fill="#FFABF9"></path>
          <path
            d="M33.888 34.363l9.044-5.124a1.24 1.24 0 0 1 1.227.003l7.346 4.207a.33.33 0 0 1 .002.572l-8.957 5.244a1.24 1.24 0 0 1-1.251 0l-7.415-4.33a.33.33 0 0 1 .004-.572z"
            fill="#FF67C5"></path>
        </g>
        <path fill="#C4BDCF" opacity="0.23" d="M10.29 24.503L39.639 41.83l-2.998 1.619L7.132 26.235z">
        </path>
      </g>
    </g>
    <g>
      <path
        d="M121.497 1.074l66.667 39.37a11.939 11.939 0 0 1 5.868 10.28v189.994a7.959 7.959 0 0 1-11.977 6.871l-64.635-37.792a9.949 9.949 0 0 1-4.927-8.589V6.213a5.97 5.97 0 0 1 9.004-5.14z"
        fill="#D5D5DB"></path>
      <path
        d="M119.207 2.761l66.667 39.371a11.939 11.939 0 0 1 5.867 10.28v189.994a7.959 7.959 0 0 1-11.976 6.87l-64.635-37.792a9.949 9.949 0 0 1-4.927-8.588V7.9a5.97 5.97 0 0 1 9.004-5.14z"
        fill="#F2F3F7"></path>
      <path fill="#FCFDFF"
        d="M110.203 22.756L191.74 70.91v79.056l-81.538-47.676zM152.044 131.838l33.794 19.957v40.243l-33.794-19.76zM114.164 110.363l33.794 19.957v40.243l-33.794-19.759zM151.717 176.05l33.793 19.958v40.243l-33.793-19.76zM113.837 154.575l33.794 19.958v40.243l-33.794-19.76z">
      </path>
      <path
        d="M124.591 83.148l40.22 23.788a4.698 4.698 0 0 1 2.306 4.044 1.536 1.536 0 0 1-2.313 1.326L124.597 88.76a4.905 4.905 0 0 1-2.426-4.232 1.604 1.604 0 0 1 2.42-1.38zM127.918 94.956l33.702 19.934a3.937 3.937 0 0 1 1.933 3.388 1.287 1.287 0 0 1-1.938 1.111l-33.692-19.73a4.11 4.11 0 0 1-2.033-3.547 1.344 1.344 0 0 1 2.028-1.156zM158.83 90.595c5.8-3.376 6.241-13.552.988-22.728-5.254-9.176-14.214-13.878-20.013-10.501-5.799 3.376-6.241 13.552-.988 22.728 5.254 9.176 14.214 13.878 20.013 10.501z"
        fill="#DFE0E6"></path>
      <path
        d="M142.748 34.858c1.254-.73 1.352-2.93.216-4.913-1.135-1.982-3.072-2.997-4.327-2.267-1.255.731-1.352 2.93-.217 4.913s3.073 2.998 4.328 2.267z"
        fill="#D5D5DB"></path>
      <g class="promo-icon">
        <g filter="url(#hImagePromo)" transform="translate(160.269 77.305)">
          <path
            d="M40.846 52.546c7.733-4.502 8.327-18.067 1.325-30.296-7.002-12.23-18.947-18.493-26.68-13.99-7.734 4.502-8.328 18.066-1.326 30.296 7.001 12.23 18.947 18.493 26.68 13.99z">
          </path>
          <path
            d="M39.18 53.284c7.325-4.265 7.9-17.398 1.067-29.332-6.83-11.93-18.39-17.991-25.709-13.73-7.324 4.265-7.899 17.398-1.067 29.332 6.83 11.93 18.39 17.991 25.71 13.73z"
            stroke="#FFF" stroke-width="1.418" fill="#FF9BEE"></path>
          <path
            d="M35.208 44.628c4.593-2.674 4.867-10.866.612-18.298-4.255-7.431-11.427-11.288-16.02-8.614-4.592 2.673-4.866 10.866-.611 18.297 4.254 7.432 11.427 11.288 16.02 8.615z"
            fill="#FFF" opacity="0.1"></path>
          <g transform="translate(9.735 13.652)">
            <mask id="jImagePromo" fill="#fff">
              <use xlink:href="#iImagePromo"></use>
            </mask>
            <use fill="#FFF" opacity="0.2" transform="rotate(-30 16.328 18.636)" xlink:href="#iImagePromo">
            </use>
            <path
              d="M17.062 20.254c1.576-.006 2.86-2.068 2.87-4.607.009-2.539-1.26-4.592-2.836-4.587-1.576.006-2.86 2.069-2.87 4.608-.009 2.538 1.26 4.592 2.836 4.586z"
              fill="#FFF" opacity="0.3" mask="url(#jImagePromo)" transform="rotate(-30 17.079 15.657)">
            </path>
            <path
              d="M15.982 21.441c-1.878.007-3.29-2.277-3.28-5.03.01-2.752 1.436-5.042 3.31-5.049 1.878-.007 3.291 2.278 3.281 5.03-.01 2.752-1.436 5.043-3.31 5.05z"
              stroke="#000" stroke-width="0.886" fill="#FFF" mask="url(#jImagePromo)"
              transform="rotate(-30 15.997 16.402)"></path>
            <path
              d="M16.092 39.534c3.28-.012 5.956-4.308 5.976-9.595.019-5.287-2.626-9.564-5.907-9.552-3.281.012-5.957 4.308-5.976 9.595-.019 5.288 2.625 9.564 5.907 9.552z"
              fill="#FFF" mask="url(#jImagePromo)" transform="rotate(-30 16.126 29.96)"></path>
            <path
              d="M17.173 38.79c3.282-.012 5.957-4.308 5.976-9.596.02-5.287-2.625-9.564-5.906-9.552-3.282.012-5.957 4.308-5.976 9.596-.02 5.287 2.625 9.564 5.906 9.552z"
              fill="#FFF" opacity="0.3" mask="url(#jImagePromo)" transform="rotate(-30 17.208 29.216)">
            </path>
          </g>
        </g>
      </g>
      <g class="promo-icon2">
        <g filter="url(#kImagePromo)" transform="translate(83.808 93.307)">
          <mask id="nImagePromo" fill="#fff">
            <use xlink:href="#mImagePromo"></use>
          </mask>
          <use stroke="#FFF" stroke-width="1.403" fill="#06D8FF" xlink:href="#mImagePromo"></use>
          <path
            d="M6.99 11.807l23.22 13.817c1.179.7 1.9 1.97 1.9 3.34a1.257 1.257 0 0 1-1.9 1.08L6.99 16.229a3.888 3.888 0 0 1-1.9-3.34 1.257 1.257 0 0 1 1.9-1.08z"
            fill="#FFF" opacity="0.3" mask="url(#nImagePromo)"></path>
          <path
            d="M5.554 12.2l23.22 13.816a4.472 4.472 0 0 1 2.186 3.843 1.842 1.842 0 0 1-2.784 1.583L4.956 17.625a4.472 4.472 0 0 1-2.185-3.843 1.842 1.842 0 0 1 2.783-1.583z"
            stroke="#000" stroke-width="1.169" fill="#FFF" mask="url(#nImagePromo)"></path>
          <path
            d="M46.456 41.713c.884-.002 1.604-1.262 1.607-2.815.004-1.552-.71-2.809-1.593-2.807-.884.003-1.604 1.263-1.608 2.815-.003 1.553.71 2.81 1.594 2.807z"
            fill="#FFF" mask="url(#nImagePromo)" transform="rotate(-20 46.463 38.902)"></path>
          <path
            d="M51.938 44.929c.884-.002 1.604-1.263 1.608-2.815.003-1.553-.71-2.81-1.594-2.807-.884.002-1.603 1.262-1.607 2.815-.004 1.552.71 2.809 1.593 2.807z"
            fill="#FFF" mask="url(#nImagePromo)" transform="rotate(-20 51.945 42.118)"></path>
          <path
            d="M47.758 40.819c.883-.002 1.603-1.263 1.607-2.815.004-1.553-.71-2.81-1.594-2.807-.884.002-1.603 1.262-1.607 2.815-.004 1.552.71 2.81 1.594 2.807z"
            fill="#FFF" opacity="0.2" mask="url(#nImagePromo)" transform="rotate(-20 47.764 38.008)">
          </path>
          <path
            d="M53.24 44.034c.884-.002 1.603-1.262 1.607-2.815.004-1.552-.71-2.809-1.593-2.807-.884.003-1.604 1.263-1.608 2.815-.004 1.553.71 2.81 1.594 2.807z"
            fill="#FFF" opacity="0.2" mask="url(#nImagePromo)" transform="rotate(-20 53.247 41.223)">
          </path>
          <path fill="#FFF" opacity="0.6" mask="url(#nImagePromo)"
            d="M-2.951 56.261L13.944 42.11l21.212 41.935-40.31-22.364z"></path>
          <path fill="#FFF" opacity="0.1" mask="url(#nImagePromo)"
            d="M-.348 56.261L16.548 42.11l21.211 41.935L-2.55 61.68z"></path>
          <path fill="#FFF" mask="url(#nImagePromo)" d="M10.505 69.979l30.096-23.745 33.85 63.097z">
          </path>
          <path fill="#FFF" opacity="0.21" mask="url(#nImagePromo)"
            d="M13.542 69.979l30.096-23.745 33.85 63.097z">
          </path>
        </g>
      </g>
      <g class="promo-icon3">
        <g filter="url(#oImagePromo)" transform="translate(98.788 29.7)">
          <path
            d="M29.814 46.374a1.008 1.008 0 0 1-1.268.205L1.66 30.85a2.693 2.693 0 0 1-1.333-2.325V1.675c0-.522.397-.952.906-1.004A1.008 1.008 0 0 1 2.505.47l26.892 15.89a2.693 2.693 0 0 1 1.323 2.319V45.37c0 .522-.397.952-.906 1.004z">
          </path>
          <path
            d="M1.253 1.939a.478.478 0 0 0-.721.412V29.2c0 .767.407 1.478 1.07 1.865l26.885 15.73a.478.478 0 0 0 .72-.414V19.69c0-.764-.403-1.472-1.062-1.86L1.253 1.938z"
            stroke="#FFF" stroke-width="1.063" fill="#F9B25F"></path>
          <g fill="#FFF">
            <path
              d="M17.975 32.34c2.79-1.625 2.959-6.598.376-11.109-2.583-4.51-6.938-6.85-9.728-5.226-2.79 1.624-2.958 6.598-.376 11.109 2.583 4.51 6.938 6.85 9.728 5.226z"
              opacity="0.2"></path>
            <path
              d="M18.867 31.634c2.79-1.624 2.958-6.598.376-11.109-2.583-4.51-6.938-6.85-9.728-5.226-2.79 1.625-2.959 6.598-.376 11.109 2.582 4.51 6.938 6.85 9.728 5.226z"
              opacity="0.1"></path>
            <path opacity="0.2" d="M12.054 19.503v5.881h4.458z"></path>
            <path d="M10.957 18.86l5.793 7.642h-5.793v-7.641z" stroke="#000" stroke-width="0.886">
            </path>
          </g>
        </g>
      </g>
    </g>
  </g>
</svg>